<mxfile host="app.diagrams.net" agent="Mozilla/5.0 (Macintosh; Intel Mac OS X 10.15; rv:137.0) Gecko/20100101 Firefox/137.0" version="24.7.7">
  <diagram name="Page-1" id="nMK7wGiNTNxS1q2FWcUp">
    <mxGraphModel dx="1314" dy="680" grid="1" gridSize="10" guides="1" tooltips="1" connect="1" arrows="1" fold="1" page="1" pageScale="1" pageWidth="3300" pageHeight="4681" math="0" shadow="0">
      <root>
        <mxCell id="0" />
        <mxCell id="1" parent="0" />
        <mxCell id="sJuday59ZZZzxu0nJ7RU-22" value="" style="rounded=0;whiteSpace=wrap;html=1;strokeColor=none;" vertex="1" parent="1">
          <mxGeometry x="240" y="60" width="870" height="410" as="geometry" />
        </mxCell>
        <mxCell id="sJuday59ZZZzxu0nJ7RU-1" value="" style="rounded=1;whiteSpace=wrap;html=1;" vertex="1" parent="1">
          <mxGeometry x="380" y="150" width="580" height="230" as="geometry" />
        </mxCell>
        <mxCell id="sJuday59ZZZzxu0nJ7RU-2" value="" style="ellipse;whiteSpace=wrap;html=1;aspect=fixed;" vertex="1" parent="1">
          <mxGeometry x="350" y="237.5" width="55" height="55" as="geometry" />
        </mxCell>
        <mxCell id="sJuday59ZZZzxu0nJ7RU-3" value="" style="html=1;shadow=0;dashed=0;align=center;verticalAlign=middle;shape=mxgraph.arrows2.arrow;dy=0.6;dx=40;flipH=1;notch=0;" vertex="1" parent="1">
          <mxGeometry x="361" y="252.5" width="25" height="25" as="geometry" />
        </mxCell>
        <mxCell id="sJuday59ZZZzxu0nJ7RU-4" value="" style="ellipse;whiteSpace=wrap;html=1;aspect=fixed;movable=1;resizable=1;rotatable=1;deletable=1;editable=1;locked=0;connectable=1;" vertex="1" parent="1">
          <mxGeometry x="932" y="237.5" width="55" height="55" as="geometry" />
        </mxCell>
        <mxCell id="sJuday59ZZZzxu0nJ7RU-5" value="" style="html=1;shadow=0;dashed=0;align=center;verticalAlign=middle;shape=mxgraph.arrows2.arrow;dy=0.6;dx=40;flipH=1;notch=0;movable=1;resizable=1;rotatable=1;deletable=1;editable=1;locked=0;connectable=1;direction=west;" vertex="1" parent="1">
          <mxGeometry x="950" y="252.5" width="25" height="25" as="geometry" />
        </mxCell>
        <mxCell id="sJuday59ZZZzxu0nJ7RU-14" value="" style="group" vertex="1" connectable="0" parent="1">
          <mxGeometry x="600" y="390" width="140" height="20" as="geometry" />
        </mxCell>
        <mxCell id="sJuday59ZZZzxu0nJ7RU-6" value="" style="ellipse;whiteSpace=wrap;html=1;aspect=fixed;fillColor=#000000;" vertex="1" parent="sJuday59ZZZzxu0nJ7RU-14">
          <mxGeometry width="20" height="20" as="geometry" />
        </mxCell>
        <mxCell id="sJuday59ZZZzxu0nJ7RU-7" value="" style="ellipse;whiteSpace=wrap;html=1;aspect=fixed;" vertex="1" parent="sJuday59ZZZzxu0nJ7RU-14">
          <mxGeometry x="40" width="20" height="20" as="geometry" />
        </mxCell>
        <mxCell id="sJuday59ZZZzxu0nJ7RU-8" value="" style="ellipse;whiteSpace=wrap;html=1;aspect=fixed;" vertex="1" parent="sJuday59ZZZzxu0nJ7RU-14">
          <mxGeometry x="80" width="20" height="20" as="geometry" />
        </mxCell>
        <mxCell id="sJuday59ZZZzxu0nJ7RU-9" value="" style="ellipse;whiteSpace=wrap;html=1;aspect=fixed;" vertex="1" parent="sJuday59ZZZzxu0nJ7RU-14">
          <mxGeometry x="120" width="20" height="20" as="geometry" />
        </mxCell>
        <mxCell id="sJuday59ZZZzxu0nJ7RU-17" value="&lt;font style=&quot;font-size: 20px;&quot;&gt;Content area&lt;/font&gt;" style="text;html=1;align=center;verticalAlign=middle;whiteSpace=wrap;rounded=0;" vertex="1" parent="1">
          <mxGeometry x="610" y="262.5" width="120" height="30" as="geometry" />
        </mxCell>
        <mxCell id="sJuday59ZZZzxu0nJ7RU-18" value="&lt;font style=&quot;font-size: 20px;&quot;&gt;&quot;Prev&quot; button&lt;/font&gt;" style="text;html=1;align=center;verticalAlign=middle;whiteSpace=wrap;rounded=0;" vertex="1" parent="1">
          <mxGeometry x="260" y="250" width="100" height="30" as="geometry" />
        </mxCell>
        <mxCell id="sJuday59ZZZzxu0nJ7RU-19" value="&lt;font style=&quot;font-size: 20px;&quot;&gt;&quot;Next&quot; button&lt;/font&gt;" style="text;html=1;align=center;verticalAlign=middle;whiteSpace=wrap;rounded=0;" vertex="1" parent="1">
          <mxGeometry x="975" y="250" width="100" height="30" as="geometry" />
        </mxCell>
        <mxCell id="sJuday59ZZZzxu0nJ7RU-20" value="&lt;font style=&quot;font-size: 20px;&quot;&gt;Scroll markers&lt;/font&gt;" style="text;html=1;align=center;verticalAlign=middle;whiteSpace=wrap;rounded=0;" vertex="1" parent="1">
          <mxGeometry x="595" y="420" width="150" height="30" as="geometry" />
        </mxCell>
      </root>
    </mxGraphModel>
  </diagram>
</mxfile>
